# xmcd CD database file generated by Grip 3.0.5
# 
# Track frame offsets:
#       150
#       14085
#       26325
#       37297
#       51240
#       62265
#       77092
#       87772
#       98150
#       110312
#       119702
#       131872
#       144217
#       155395
#       166462
#       178455
#       187372
#       199510
# 
# Disc length: 3146 seconds
# 
# Revision: 1
# Processed by: cddbd v1.5.1PL0 Copyright (c) Steve Scherf et al.
# Submitted via: Grip 3.0.5
# 
DISCID=010c4812
DTITLE=Blue Moon Special - Two-Tone Jump!
DYEAR=1993
DGENRE=Blues
TTITLE0=Please Be Mine
TTITLE1=Yo-Yo Baby
TTITLE2=The Last Laugh
TTITLE3=5-10-15 Hours
TTITLE4=Mellow Saxophone
TTITLE5=Dynamite
TTITLE6=Jivin'Beat
TTITLE7=Hide and Seek
TTITLE8=Well Oh Well
TTITLE9=Diggin' The Boogie
TTITLE10=Train To Nowhere
TTITLE11=I Hate To Sleep Alone
TTITLE12=Drinkin' Wine
TTITLE13=The Tailgator Stomp
TTITLE14=Honey Hush
TTITLE15=Something I Said
TTITLE16=Crying Out For Love
TTITLE17=The Train Kept A Rollin'
EXTD=
EXTT0=
EXTT1=
EXTT2=
EXTT3=
EXTT4=
EXTT5=
EXTT6=
EXTT7=
EXTT8=
EXTT9=
EXTT10=
EXTT11=
EXTT12=
EXTT13=
EXTT14=
EXTT15=
EXTT16=
EXTT17=
PLAYORDER=
